<?xml version="1.0" encoding="UTF-8" standalone="no"?>
<!DOCTYPE svg PUBLIC "-//W3C//DTD SVG 1.1//EN"
 "http://www.w3.org/Graphics/SVG/1.1/DTD/svg11.dtd">
<!-- Generated by graphviz version 2.30.1 (20130221.2233)
 -->
<!-- Title: G Pages: 1 -->
<svg width="794pt" height="313pt"
 viewBox="0.00 0.00 794.00 313.00" xmlns="http://www.w3.org/2000/svg" xmlns:xlink="http://www.w3.org/1999/xlink">
<g id="graph0" class="graph" transform="scale(1 1) rotate(0) translate(4 309)">
<title>G</title>
<polygon fill="white" stroke="white" points="-4,5 -4,-309 791,-309 791,5 -4,5"/>
<g id="clust1" class="cluster"><title>cluster_global</title>
<path fill="none" stroke="gray" d="M20,-8C20,-8 766,-8 766,-8 772,-8 778,-14 778,-20 778,-20 778,-285 778,-285 778,-291 772,-297 766,-297 766,-297 20,-297 20,-297 14,-297 8,-291 8,-285 8,-285 8,-20 8,-20 8,-14 14,-8 20,-8"/>
<text text-anchor="middle" x="393" y="-282" font-family="Times,serif" font-size="11.00" fill="gray">global</text>
</g>
<!-- \\Base_MixpanelBase -->
<g id="node1" class="node"><title>\\Base_MixpanelBase</title>
<g id="a_node1"><a xlink:href="Base.MixpanelBase.html" xlink:title="Base_MixpanelBase" target="_parent">
<polygon fill="none" stroke="black" points="144.218,-160 15.7816,-160 15.7816,-124 144.218,-124 144.218,-160"/>
<text text-anchor="middle" x="80" y="-137.6" font-family="Courier,monospace" font-size="11.00">Base_MixpanelBase</text>
</a>
</g>
</g>
<!-- \\ConsumerStrategies_AbstractConsumer -->
<g id="node2" class="node"><title>\\ConsumerStrategies_AbstractConsumer</title>
<g id="a_node2"><a xlink:href="ConsumerStrategies.AbstractConsumer.html" xlink:title="ConsumerStrategies_AbstractConsumer" target="_parent">
<polygon fill="none" stroke="black" points="463.538,-214 216.462,-214 216.462,-178 463.538,-178 463.538,-214"/>
<text text-anchor="middle" x="340" y="-191.6" font-family="Courier,monospace" font-size="11.00">ConsumerStrategies_AbstractConsumer</text>
</a>
</g>
</g>
<!-- \\ConsumerStrategies_AbstractConsumer&#45;&gt;\\Base_MixpanelBase -->
<g id="edge1" class="edge"><title>\\ConsumerStrategies_AbstractConsumer&#45;&gt;\\Base_MixpanelBase</title>
<path fill="none" stroke="black" d="M252.731,-177.944C220.881,-171.277 185.113,-163.791 154.499,-157.383"/>
<polygon fill="none" stroke="black" points="154.832,-153.877 144.327,-155.254 153.398,-160.729 154.832,-153.877"/>
</g>
<!-- \\ConsumerStrategies_CurlConsumer -->
<g id="node3" class="node"><title>\\ConsumerStrategies_CurlConsumer</title>
<g id="a_node3"><a xlink:href="ConsumerStrategies.CurlConsumer.html" xlink:title="ConsumerStrategies_CurlConsumer" target="_parent">
<polygon fill="none" stroke="black" points="763.134,-268 542.866,-268 542.866,-232 763.134,-232 763.134,-268"/>
<text text-anchor="middle" x="653" y="-245.6" font-family="Courier,monospace" font-size="11.00">ConsumerStrategies_CurlConsumer</text>
</a>
</g>
</g>
<!-- \\ConsumerStrategies_CurlConsumer&#45;&gt;\\ConsumerStrategies_AbstractConsumer -->
<g id="edge2" class="edge"><title>\\ConsumerStrategies_CurlConsumer&#45;&gt;\\ConsumerStrategies_AbstractConsumer</title>
<path fill="none" stroke="black" d="M548.009,-231.944C518.183,-226.765 485.507,-221.091 455.108,-215.813"/>
<polygon fill="none" stroke="black" points="455.344,-212.302 444.893,-214.039 454.147,-219.199 455.344,-212.302"/>
</g>
<!-- \\ConsumerStrategies_FileConsumer -->
<g id="node4" class="node"><title>\\ConsumerStrategies_FileConsumer</title>
<g id="a_node4"><a xlink:href="ConsumerStrategies.FileConsumer.html" xlink:title="ConsumerStrategies_FileConsumer" target="_parent">
<polygon fill="none" stroke="black" points="763.134,-214 542.866,-214 542.866,-178 763.134,-178 763.134,-214"/>
<text text-anchor="middle" x="653" y="-191.6" font-family="Courier,monospace" font-size="11.00">ConsumerStrategies_FileConsumer</text>
</a>
</g>
</g>
<!-- \\ConsumerStrategies_FileConsumer&#45;&gt;\\ConsumerStrategies_AbstractConsumer -->
<g id="edge3" class="edge"><title>\\ConsumerStrategies_FileConsumer&#45;&gt;\\ConsumerStrategies_AbstractConsumer</title>
<path fill="none" stroke="black" d="M542.79,-196C520.531,-196 496.879,-196 473.9,-196"/>
<polygon fill="none" stroke="black" points="473.75,-192.5 463.75,-196 473.75,-199.5 473.75,-192.5"/>
</g>
<!-- \\ConsumerStrategies_SocketConsumer -->
<g id="node5" class="node"><title>\\ConsumerStrategies_SocketConsumer</title>
<g id="a_node5"><a xlink:href="ConsumerStrategies.SocketConsumer.html" xlink:title="ConsumerStrategies_SocketConsumer" target="_parent">
<polygon fill="none" stroke="black" points="769.836,-160 536.164,-160 536.164,-124 769.836,-124 769.836,-160"/>
<text text-anchor="middle" x="653" y="-137.6" font-family="Courier,monospace" font-size="11.00">ConsumerStrategies_SocketConsumer</text>
</a>
</g>
</g>
<!-- \\ConsumerStrategies_SocketConsumer&#45;&gt;\\ConsumerStrategies_AbstractConsumer -->
<g id="edge4" class="edge"><title>\\ConsumerStrategies_SocketConsumer&#45;&gt;\\ConsumerStrategies_AbstractConsumer</title>
<path fill="none" stroke="black" d="M548.009,-160.056C518.183,-165.235 485.507,-170.909 455.108,-176.187"/>
<polygon fill="none" stroke="black" points="454.147,-172.801 444.893,-177.961 455.344,-179.698 454.147,-172.801"/>
</g>
<!-- \\Mixpanel -->
<g id="node6" class="node"><title>\\Mixpanel</title>
<g id="a_node6"><a xlink:href="Mixpanel.html" xlink:title="Mixpanel" target="_parent">
<polygon fill="none" stroke="black" points="374.309,-160 305.691,-160 305.691,-124 374.309,-124 374.309,-160"/>
<text text-anchor="middle" x="340" y="-137.6" font-family="Courier,monospace" font-size="11.00">Mixpanel</text>
</a>
</g>
</g>
<!-- \\Mixpanel&#45;&gt;\\Base_MixpanelBase -->
<g id="edge5" class="edge"><title>\\Mixpanel&#45;&gt;\\Base_MixpanelBase</title>
<path fill="none" stroke="black" d="M305.536,-142C267.46,-142 204.121,-142 154.405,-142"/>
<polygon fill="none" stroke="black" points="154.337,-138.5 144.337,-142 154.337,-145.5 154.337,-138.5"/>
</g>
<!-- \\Producers_MixpanelBaseProducer -->
<g id="node7" class="node"><title>\\Producers_MixpanelBaseProducer</title>
<g id="a_node7"><a xlink:href="Producers.MixpanelBaseProducer.html" xlink:title="Producers_MixpanelBaseProducer" target="_parent">
<polygon fill="none" stroke="black" points="447.032,-106 232.968,-106 232.968,-70 447.032,-70 447.032,-106"/>
<text text-anchor="middle" x="340" y="-83.6" font-family="Courier,monospace" font-size="11.00">Producers_MixpanelBaseProducer</text>
</a>
</g>
</g>
<!-- \\Producers_MixpanelBaseProducer&#45;&gt;\\Base_MixpanelBase -->
<g id="edge6" class="edge"><title>\\Producers_MixpanelBaseProducer&#45;&gt;\\Base_MixpanelBase</title>
<path fill="none" stroke="black" d="M252.731,-106.056C220.881,-112.723 185.113,-120.209 154.499,-126.617"/>
<polygon fill="none" stroke="black" points="153.398,-123.271 144.327,-128.746 154.832,-130.123 153.398,-123.271"/>
</g>
<!-- \\Producers_MixpanelEvents -->
<g id="node8" class="node"><title>\\Producers_MixpanelEvents</title>
<g id="a_node8"><a xlink:href="Producers.MixpanelEvents.html" xlink:title="Producers_MixpanelEvents" target="_parent">
<polygon fill="none" stroke="black" points="740.426,-106 565.574,-106 565.574,-70 740.426,-70 740.426,-106"/>
<text text-anchor="middle" x="653" y="-83.6" font-family="Courier,monospace" font-size="11.00">Producers_MixpanelEvents</text>
</a>
</g>
</g>
<!-- \\Producers_MixpanelEvents&#45;&gt;\\Producers_MixpanelBaseProducer -->
<g id="edge7" class="edge"><title>\\Producers_MixpanelEvents&#45;&gt;\\Producers_MixpanelBaseProducer</title>
<path fill="none" stroke="black" d="M565.782,-88C532.18,-88 493.152,-88 457.139,-88"/>
<polygon fill="none" stroke="black" points="457.068,-84.5001 447.068,-88 457.068,-91.5001 457.068,-84.5001"/>
</g>
<!-- \\Producers_MixpanelPeople -->
<g id="node9" class="node"><title>\\Producers_MixpanelPeople</title>
<g id="a_node9"><a xlink:href="Producers.MixpanelPeople.html" xlink:title="Producers_MixpanelPeople" target="_parent">
<polygon fill="none" stroke="black" points="740.426,-52 565.574,-52 565.574,-16 740.426,-16 740.426,-52"/>
<text text-anchor="middle" x="653" y="-29.6" font-family="Courier,monospace" font-size="11.00">Producers_MixpanelPeople</text>
</a>
</g>
</g>
<!-- \\Producers_MixpanelPeople&#45;&gt;\\Producers_MixpanelBaseProducer -->
<g id="edge8" class="edge"><title>\\Producers_MixpanelPeople&#45;&gt;\\Producers_MixpanelBaseProducer</title>
<path fill="none" stroke="black" d="M565.782,-48.9703C531.523,-54.9189 491.623,-61.8468 455.029,-68.2007"/>
<polygon fill="none" stroke="black" points="454.057,-64.8171 444.803,-69.9763 455.254,-71.7139 454.057,-64.8171"/>
</g>
</g>
</svg>
